<svg xmlns="http://www.w3.org/2000/svg" width="1800" height="620" viewBox="0 0 1800 620" fill="none">

  <defs>
    <linearGradient id="gHornL" x1="190" y1="48" x2="226" y2="140" gradientUnits="userSpaceOnUse">
      <stop offset="0" stop-color="#FFB378"/>
      <stop offset="0.34" stop-color="#F23A47"/>
      <stop offset="1" stop-color="#D7192F"/>
    </linearGradient>
    <linearGradient id="gHornR" x1="322" y1="48" x2="286" y2="140" gradientUnits="userSpaceOnUse">
      <stop offset="0" stop-color="#FFB378"/>
      <stop offset="0.34" stop-color="#F23A47"/>
      <stop offset="1" stop-color="#D7192F"/>
    </linearGradient>
    <linearGradient id="gWing" x1="60" y1="180" x2="450" y2="305" gradientUnits="userSpaceOnUse">
      <stop offset="0" stop-color="#FF1E9A"/>
      <stop offset="0.56" stop-color="#E12685"/>
      <stop offset="1" stop-color="#7A1E68"/>
    </linearGradient>
    <radialGradient id="gCore" cx="42%" cy="32%" r="74%">
      <stop offset="0" stop-color="#4B1E52"/>
      <stop offset="0.58" stop-color="#211123"/>
      <stop offset="1" stop-color="#0E0B12"/>
    </radialGradient>
    <linearGradient id="gHeart" x1="398" y1="410" x2="474" y2="491" gradientUnits="userSpaceOnUse">
      <stop offset="0" stop-color="#FFB378"/>
      <stop offset="0.4" stop-color="#F23A47"/>
      <stop offset="1" stop-color="#D7192F"/>
    </linearGradient>
    <linearGradient id="gAccent" x1="0" y1="0" x2="1" y2="0">
      <stop offset="0" stop-color="#E12685"/>
      <stop offset="0.48" stop-color="#F23A47"/>
      <stop offset="1" stop-color="#FFB378"/>
    </linearGradient>
    <clipPath id="clipCore"><circle cx="256" cy="260" r="136"/></clipPath>
  </defs>
<g transform="translate(58 55) scale(0.86)"><g id="AIchan-symbol" stroke-linecap="round" stroke-linejoin="round">
<path d="M132 235 C93 200 68 181 42 181 C61 207 57 238 36 262 C67 255 91 273 98 302 C105 269 115 248 142 235 Z" fill="url(#gWing)" stroke="#0E0B12" stroke-width="12"/>
<path d="M380 235 C419 200 444 181 470 181 C451 207 455 238 476 262 C445 255 421 273 414 302 C407 269 397 248 370 235 Z" fill="url(#gWing)" stroke="#0E0B12" stroke-width="12"/>
<path d="M193 126 C188 92 201 64 226 56 C230 89 222 116 208 137 Z" fill="url(#gHornL)" stroke="#0E0B12" stroke-width="10"/>
<path d="M319 126 C324 92 311 64 286 56 C282 89 290 116 304 137 Z" fill="url(#gHornR)" stroke="#0E0B12" stroke-width="10"/>
<path d="M214 69 C213 88 209 105 204 121" fill="none" stroke="#FFB378" stroke-width="5" opacity="0.72"/>
<path d="M298 69 C299 88 303 105 308 121" fill="none" stroke="#FFB378" stroke-width="5" opacity="0.72"/>
<circle cx="256" cy="260" r="162" fill="#0E0B12"/>
<circle cx="256" cy="260" r="148" fill="url(#gCore)"/>
<circle cx="256" cy="260" r="146" fill="none" stroke="#E12685" stroke-width="8"/>
<g clip-path="url(#clipCore)">
<path d="M170 383 C230 336 217 270 280 213 C315 181 357 158 381 116" fill="none" stroke="#FF1E9A" stroke-width="22" opacity="0.54"/>
<path d="M201 395 C251 334 254 260 329 207 C356 188 380 170 393 138" fill="none" stroke="#F23A47" stroke-width="10" opacity="0.78"/>
<path d="M134 292 C194 255 201 195 266 147" fill="none" stroke="#FFB378" stroke-width="7" opacity="0.43"/>
<path d="M339 378 C291 322 318 252 252 191 C221 164 185 150 151 144" fill="none" stroke="#6C2B73" stroke-width="13" opacity="0.77"/>
<path d="M162 213 C205 194 230 177 254 138" fill="none" stroke="#E12685" stroke-width="8" opacity="0.48"/>
</g>
<circle cx="256" cy="260" r="137" fill="none" stroke="#0E0B12" stroke-width="5" opacity="0.55"/>
<circle cx="256" cy="260" r="148" fill="none" stroke="#E12685" stroke-width="4"/>
<path d="M365 356 C414 384 389 420 426 438" fill="none" stroke="#0E0B12" stroke-width="23"/>
<path d="M365 356 C414 384 389 420 426 438" fill="none" stroke="#E12685" stroke-width="12"/>
<path d="M437 427 C450 405 482 418 476 447 C471 468 446 480 437 491 C428 480 401 468 397 447 C392 418 425 405 437 427 Z" fill="url(#gHeart)" stroke="#0E0B12" stroke-width="10"/>
<path d="M417 437 C426 426 438 425 446 432" fill="none" stroke="#FFB378" stroke-width="4" opacity="0.68"/>
<path d="M 242.973 310 L 239.507 290.561 L 210.054 290.561 L 206.293 310 L 173.668 310 L 203.982 206.03 L 244.582 206.03 L 275.304 310 L 242.973 310 Z M 229.787 250.414 Q 228.632 245.339 227.023 238.157 Q 225.437 230.975 224.554 224.586 Q 223.693 230.975 222.243 238.021 Q 220.793 245.045 219.637 250.255 L 215.582 267.655 L 233.843 267.655 L 229.787 250.414 Z M 334.332 310 L 280.093 310 L 280.093 294.05 L 292.418 289.111 L 292.418 227.214 L 280.093 222.411 L 280.093 206.461 L 334.332 206.461 L 334.332 222.411 L 322.143 227.214 L 322.143 289.111 L 334.332 294.05 L 334.332 310 Z" fill="#FFF1E7" opacity="1"/>
</g></g>
<path d="M 699.858 290 L 695.364 264.796 L 657.176 264.796 L 652.3 290 L 610 290 L 649.304 155.198 L 701.944 155.198 L 741.776 290 L 699.858 290 Z M 682.762 212.744 Q 681.264 206.164 679.178 196.852 Q 677.122 187.54 675.976 179.256 Q 674.86 187.54 672.98 196.676 Q 671.1 205.782 669.602 212.538 L 664.344 235.098 L 688.02 235.098 L 682.762 212.744 Z" fill="#211123" opacity="1"/>
<path d="M 831.298 290 L 760.974 290 L 760.974 269.32 L 776.954 262.916 L 776.954 182.664 L 760.974 176.436 L 760.974 155.756 L 831.298 155.756 L 831.298 176.436 L 815.494 182.664 L 815.494 262.916 L 831.298 269.32 L 831.298 290 Z" fill="#E12685" opacity="1"/>
<path d="M 903.204 291.88 Q 888.164 291.88 876.59 286.24 Q 865.016 280.6 858.613 268.762 Q 852.238 256.924 852.238 238.476 Q 852.238 219.5 859.288 207.574 Q 866.338 195.618 878.558 189.89 Q 890.778 184.162 906.024 184.162 Q 914.278 184.162 922.826 186.248 Q 931.404 188.304 938.336 192.064 L 928.378 218.178 Q 923.296 215.358 918.89 213.86 Q 914.484 212.362 909.784 212.362 Q 902.058 212.362 896.418 218.766 Q 890.778 225.14 890.778 238.3 Q 890.778 251.842 896.33 257.57 Q 901.882 263.298 909.96 263.298 Q 915.982 263.298 922.826 260.86 Q 929.7 258.422 935.516 254.104 L 935.516 282.656 Q 929.318 286.798 921.24 289.354 Q 913.162 291.88 903.204 291.88 Z M 991.358 167.418 Q 991.358 178.904 990.8 186.806 Q 990.242 194.678 989.86 198.82 L 991.564 198.82 Q 996.44 190.742 1002.726 187.452 Q 1009.042 184.162 1017.678 184.162 Q 1026.902 184.162 1034.774 188.127 Q 1042.676 192.064 1047.552 200.436 Q 1052.458 208.778 1052.458 222.32 L 1052.458 290 L 1014.124 290 L 1014.124 233.218 Q 1014.124 212.362 1004.724 212.362 Q 997.204 212.362 994.266 220.646 Q 991.358 228.9 991.358 244.322 L 991.358 290 L 953.376 290 L 953.376 147.12 L 991.358 147.12 L 991.358 167.418 Z M 1125.42 184.162 Q 1143.632 184.162 1154.06 193.944 Q 1164.518 203.696 1164.518 221.762 L 1164.518 290 L 1138.374 290 L 1131.06 276.282 L 1130.296 276.282 Q 1124.098 284.536 1117.136 288.208 Q 1110.174 291.88 1097.954 291.88 Q 1085.352 291.88 1076.892 283.626 Q 1068.432 275.342 1068.432 258.216 Q 1068.432 241.502 1079.33 233.336 Q 1090.258 225.14 1110.38 224.376 L 1126.36 223.818 L 1126.36 222.32 Q 1126.36 215.358 1123.628 212.45 Q 1120.896 209.542 1116.372 209.542 Q 1111.114 209.542 1103.77 211.716 Q 1096.456 213.86 1089.112 217.238 L 1078.772 193.562 Q 1087.82 188.862 1099.188 186.512 Q 1110.556 184.162 1125.42 184.162 Z M 1120.338 243.94 Q 1112.994 244.322 1109.88 247.436 Q 1106.796 250.52 1106.796 256.16 Q 1106.796 261.418 1109.058 263.974 Q 1111.32 266.5 1114.874 266.5 Q 1119.574 266.5 1123.128 262.358 Q 1126.712 258.216 1126.712 251.636 L 1126.712 243.558 L 1120.338 243.94 Z M 1249.864 184.162 Q 1264.904 184.162 1274.568 193.18 Q 1284.262 202.198 1284.262 222.32 L 1284.262 290 L 1246.28 290 L 1246.28 233.218 Q 1246.28 222.878 1244.018 217.62 Q 1241.786 212.362 1236.528 212.362 Q 1228.42 212.362 1225.776 220.646 Q 1223.162 228.9 1223.162 244.498 L 1223.162 290 L 1185.18 290 L 1185.18 186.042 L 1213.586 186.042 L 1218.844 199.76 L 1219.96 199.76 Q 1224.66 192.416 1231.798 188.304 Q 1238.966 184.162 1249.864 184.162 Z" fill="#211123" opacity="1"/>
<rect x="615.0" y="330" width="649.1" height="12" rx="6" fill="url(#gAccent)"/><circle cx="1279.1" cy="336" r="6" fill="#FFB378"/>
<path d="M 616.518 392 L 620.727 392 L 620.727 386.396 L 623.422 383.263 L 629.179 392 L 634.031 392 L 626.196 380.433 L 633.826 371.63 L 628.781 371.63 L 623.75 377.506 C 622.739 378.726 621.729 379.929 620.727 381.132 L 620.727 371.63 L 616.518 371.63 L 616.518 392 Z M 634.318 392 L 638.859 392 L 640.333 387.555 L 647.95 387.555 L 649.372 392 L 654.032 392 L 646.883 371.63 L 641.471 371.63 L 634.318 392 Z M 641.471 384.195 L 642.167 382.086 C 642.823 380.008 643.453 377.93 644.188 375.401 C 644.914 377.93 645.544 380.008 646.174 382.086 L 646.857 384.195 L 641.471 384.195 Z M 659.761 392 L 664.477 392 L 667.352 380.883 C 667.61 379.886 667.842 378.766 668.117 377.479 C 668.389 378.766 668.634 379.886 668.883 380.883 L 671.779 392 L 676.469 392 L 681.951 371.63 L 677.454 371.63 L 675.061 381.745 C 674.662 383.521 674.295 385.302 673.954 387.065 C 673.599 385.302 673.201 383.521 672.777 381.745 L 670.274 371.63 L 665.982 371.63 L 663.454 381.745 C 663.029 383.539 662.631 385.328 662.277 387.118 C 661.936 385.328 661.568 383.539 661.17 381.745 L 658.777 371.63 L 654.292 371.63 L 659.761 392 Z M 682.197 392 L 686.738 392 L 688.212 387.555 L 695.829 387.555 L 697.251 392 L 701.91 392 L 694.762 371.63 L 689.35 371.63 L 682.197 392 Z M 689.35 384.195 L 690.045 382.086 C 690.702 380.008 691.332 377.93 692.067 375.401 C 692.793 377.93 693.423 380.008 694.053 382.086 L 694.735 384.195 L 689.35 384.195 Z M 707.776 371.63 L 703.567 371.63 L 703.567 392 L 707.776 392 L 707.776 371.63 Z M 715.022 371.63 L 710.813 371.63 L 710.813 392 L 715.022 392 L 715.022 371.63 Z M 733.1 392.328 C 738.376 392.328 742.121 388.828 742.121 383.771 L 742.121 381.172 L 733.564 381.172 L 733.564 384.37 L 738.004 384.37 C 737.965 386.899 736.009 388.609 733.209 388.609 C 729.735 388.609 727.644 386.011 727.644 381.828 C 727.644 377.632 729.722 375.021 733.152 375.021 C 735.585 375.021 737.269 376.373 737.72 378.451 L 741.985 378.451 C 741.465 374.185 737.707 371.302 733.03 371.302 C 727.535 371.302 723.405 375.318 723.405 381.828 C 723.405 388.115 727.329 392.328 733.1 392.328 Z M 753.607 392.328 C 759.089 392.328 763.219 388.308 763.219 381.828 C 763.219 375.336 759.089 371.302 753.607 371.302 C 748.125 371.302 744.008 375.336 744.008 381.828 C 744.008 388.281 748.125 392.328 753.607 392.328 Z M 753.607 388.609 C 750.461 388.609 748.248 386.146 748.248 381.828 C 748.248 377.479 750.461 375.021 753.607 375.021 C 756.748 375.021 758.98 377.479 758.98 381.828 C 758.98 386.146 756.748 388.609 753.607 388.609 Z M 764.695 375.239 L 770.872 375.239 L 770.872 392 L 775.086 392 L 775.086 375.239 L 781.25 375.239 L 781.25 371.63 L 764.695 371.63 L 764.695 375.239 Z M 783.383 392 L 787.592 392 L 787.592 383.412 L 796.25 383.412 L 796.25 392 L 800.446 392 L 800.446 371.63 L 796.25 371.63 L 796.25 379.803 L 787.592 379.803 L 787.592 371.63 L 783.383 371.63 L 783.383 392 Z M 807.703 371.63 L 803.495 371.63 L 803.495 392 L 807.703 392 L 807.703 371.63 Z M 819.762 392.328 C 824.535 392.328 828.092 389.388 828.731 384.851 L 824.496 384.851 C 823.975 387.24 822.225 388.609 819.819 388.609 C 816.345 388.609 814.324 385.971 814.324 381.828 C 814.324 377.659 816.358 375.021 819.819 375.021 C 822.238 375.021 824.001 376.399 824.483 378.805 L 828.731 378.805 C 828.092 374.255 824.535 371.302 819.762 371.302 C 814.158 371.302 810.085 375.318 810.085 381.828 C 810.085 388.294 814.171 392.328 819.762 392.328 Z M 835.677 392 L 840.218 392 L 841.693 387.555 L 849.31 387.555 L 850.732 392 L 855.391 392 L 848.242 371.63 L 842.83 371.63 L 835.677 392 Z M 842.83 384.195 L 843.526 382.086 C 844.182 380.008 844.812 377.93 845.547 375.401 C 846.273 377.93 846.903 380.008 847.533 382.086 L 848.216 384.195 L 842.83 384.195 Z M 861.256 371.63 L 857.047 371.63 L 857.047 392 L 861.256 392 L 861.256 371.63 Z M 879.317 392.328 C 884.09 392.328 887.647 389.388 888.285 384.851 L 884.05 384.851 C 883.53 387.24 881.78 388.609 879.374 388.609 C 875.9 388.609 873.879 385.971 873.879 381.828 C 873.879 377.659 875.913 375.021 879.374 375.021 C 881.793 375.021 883.556 376.399 884.037 378.805 L 888.285 378.805 C 887.647 374.255 884.09 371.302 879.317 371.302 C 873.712 371.302 869.639 375.318 869.639 381.828 C 869.639 388.294 873.725 392.328 879.317 392.328 Z M 890.626 392 L 894.834 392 L 894.834 383.412 L 903.492 383.412 L 903.492 392 L 907.688 392 L 907.688 371.63 L 903.492 371.63 L 903.492 379.803 L 894.834 379.803 L 894.834 371.63 L 890.626 371.63 L 890.626 392 Z M 909.341 392 L 913.883 392 L 915.357 387.555 L 922.974 387.555 L 924.396 392 L 929.055 392 L 921.906 371.63 L 916.494 371.63 L 909.341 392 Z M 916.494 384.195 L 917.19 382.086 C 917.846 380.008 918.476 377.93 919.211 375.401 C 919.938 377.93 920.568 380.008 921.197 382.086 L 921.88 384.195 L 916.494 384.195 Z M 930.711 392 L 934.92 392 L 934.92 384.877 L 938.613 384.877 C 938.626 384.877 938.639 384.877 938.656 384.877 L 942.266 392 L 946.776 392 L 942.686 384.086 C 944.97 383.031 946.326 381.006 946.326 378.315 C 946.326 374.211 943.451 371.63 938.858 371.63 L 930.711 371.63 L 930.711 392 Z M 934.92 381.5 L 934.92 375.13 L 938.6 375.13 C 940.826 375.13 942.209 376.373 942.209 378.315 C 942.209 380.257 940.826 381.5 938.613 381.5 L 934.92 381.5 Z M 947.527 392 L 952.068 392 L 953.542 387.555 L 961.159 387.555 L 962.581 392 L 967.241 392 L 960.092 371.63 L 954.68 371.63 L 947.527 392 Z M 954.68 384.195 L 955.376 382.086 C 956.032 380.008 956.662 377.93 957.397 375.401 C 958.123 377.93 958.753 380.008 959.383 382.086 L 960.066 384.195 L 954.68 384.195 Z M 977.918 392.328 C 982.691 392.328 986.248 389.388 986.887 384.851 L 982.652 384.851 C 982.131 387.24 980.381 388.609 977.975 388.609 C 974.501 388.609 972.48 385.971 972.48 381.828 C 972.48 377.659 974.515 375.021 977.975 375.021 C 980.395 375.021 982.158 376.399 982.639 378.805 L 986.887 378.805 C 986.248 374.255 982.691 371.302 977.918 371.302 C 972.314 371.302 968.241 375.318 968.241 381.828 C 968.241 388.294 972.327 392.328 977.918 392.328 Z M 988.326 375.239 L 994.503 375.239 L 994.503 392 L 998.716 392 L 998.716 375.239 L 1004.881 375.239 L 1004.881 371.63 L 988.326 371.63 L 988.326 375.239 Z M 1007.014 392 L 1021.631 392 L 1021.631 388.391 L 1011.223 388.391 L 1011.223 383.469 L 1020.848 383.469 L 1020.848 379.956 L 1011.223 379.956 L 1011.223 375.239 L 1021.631 375.239 L 1021.631 371.63 L 1007.014 371.63 L 1007.014 392 Z M 1024.036 392 L 1028.244 392 L 1028.244 384.877 L 1031.937 384.877 C 1031.95 384.877 1031.963 384.877 1031.981 384.877 L 1035.59 392 L 1040.101 392 L 1036.01 384.086 C 1038.294 383.031 1039.65 381.006 1039.65 378.315 C 1039.65 374.211 1036.776 371.63 1032.182 371.63 L 1024.036 371.63 L 1024.036 392 Z M 1028.244 381.5 L 1028.244 375.13 L 1031.924 375.13 C 1034.151 375.13 1035.533 376.373 1035.533 378.315 C 1035.533 380.257 1034.151 381.5 1031.937 381.5 L 1028.244 381.5 Z M 1048.249 392 L 1056.876 392 C 1061.509 392 1064.012 389.664 1064.012 386.256 C 1064.012 383.359 1062.1 381.609 1059.61 381.377 L 1059.61 381.351 C 1061.85 380.787 1063.259 379.216 1063.259 376.867 C 1063.259 373.734 1060.8 371.63 1056.412 371.63 L 1048.249 371.63 L 1048.249 392 Z M 1052.365 388.692 L 1052.365 383.263 L 1056.355 383.263 C 1058.473 383.263 1059.72 384.331 1059.72 386.024 C 1059.72 387.721 1058.447 388.692 1056.285 388.692 L 1052.365 388.692 Z M 1052.365 380.091 L 1052.365 374.938 L 1056.097 374.938 C 1057.944 374.938 1059.077 375.935 1059.077 377.523 C 1059.077 379.094 1057.944 380.091 1056.097 380.091 L 1052.365 380.091 Z M 1066.295 392 L 1070.504 392 L 1070.504 384.877 L 1074.197 384.877 C 1074.21 384.877 1074.223 384.877 1074.24 384.877 L 1077.85 392 L 1082.36 392 L 1078.27 384.086 C 1080.554 383.031 1081.91 381.006 1081.91 378.315 C 1081.91 374.211 1079.035 371.63 1074.442 371.63 L 1066.295 371.63 L 1066.295 392 Z M 1070.504 381.5 L 1070.504 375.13 L 1074.184 375.13 C 1076.41 375.13 1077.793 376.373 1077.793 378.315 C 1077.793 380.257 1076.41 381.5 1074.197 381.5 L 1070.504 381.5 Z M 1083.111 392 L 1087.652 392 L 1089.126 387.555 L 1096.743 387.555 L 1098.165 392 L 1102.825 392 L 1095.676 371.63 L 1090.264 371.63 L 1083.111 392 Z M 1090.264 384.195 L 1090.96 382.086 C 1091.616 380.008 1092.246 377.93 1092.981 375.401 C 1093.707 377.93 1094.337 380.008 1094.967 382.086 L 1095.65 384.195 L 1090.264 384.195 Z M 1104.481 392 L 1108.69 392 L 1108.69 382.554 C 1108.69 381.679 1108.677 379.942 1108.598 377.808 C 1109.744 379.873 1110.785 381.636 1111.372 382.567 L 1117.304 392 L 1121.749 392 L 1121.749 371.63 L 1117.549 371.63 L 1117.549 381.706 C 1117.549 382.567 1117.567 384.248 1117.619 385.818 C 1116.814 384.357 1115.939 382.812 1115.458 382.047 L 1108.909 371.63 L 1104.481 371.63 L 1104.481 392 Z M 1131.976 392 C 1138.224 392 1142.039 388.076 1142.039 381.802 C 1142.039 375.554 1138.18 371.63 1132.055 371.63 L 1124.784 371.63 L 1124.784 392 L 1131.976 392 Z M 1128.993 388.461 L 1128.993 375.169 L 1131.797 375.169 C 1135.844 375.169 1137.799 377.523 1137.799 381.802 C 1137.799 386.094 1135.87 388.461 1131.758 388.461 L 1128.993 388.461 Z" fill="#6F5B72" opacity="1"/>
</svg>