<?xml version="1.0" encoding="UTF-8" standalone="no"?>
<svg
   width="1024"
   height="1024"
   viewBox="0 0 1024 1024"
   version="1.1"
   id="svg19"
   xmlns="http://www.w3.org/2000/svg"
   xmlns:svg="http://www.w3.org/2000/svg">
  <defs
     id="defs11">
    <linearGradient
       id="borderGrad"
       x1="50"
       y1="50"
       x2="462"
       y2="462"
       gradientUnits="userSpaceOnUse">
      <stop
         offset="0"
         stop-color="#22D3EE"
         id="stop1" />
      <stop
         offset="0.48"
         stop-color="#8B5CF6"
         id="stop2" />
      <stop
         offset="1"
         stop-color="#FF5C8A"
         id="stop3" />
    </linearGradient>
    <linearGradient
       id="tileCool"
       x1="115"
       y1="120"
       x2="386"
       y2="350"
       gradientUnits="userSpaceOnUse">
      <stop
         offset="0"
         stop-color="#22D3EE"
         id="stop4" />
      <stop
         offset="0.55"
         stop-color="#8B5CF6"
         id="stop5" />
      <stop
         offset="1"
         stop-color="#2563EB"
         id="stop6" />
    </linearGradient>
    <linearGradient
       id="tileWarm"
       x1="120"
       y1="160"
       x2="250"
       y2="265"
       gradientUnits="userSpaceOnUse">
      <stop
         offset="0"
         stop-color="#FF8AB3"
         id="stop7" />
      <stop
         offset="1"
         stop-color="#8B5CF6"
         id="stop8" />
    </linearGradient>
    <linearGradient
       id="textAccent"
       x1="0"
       y1="0"
       x2="480"
       y2="0"
       gradientUnits="userSpaceOnUse">
      <stop
         offset="0"
         stop-color="#22D3EE"
         id="stop9" />
      <stop
         offset="0.5"
         stop-color="#8B5CF6"
         id="stop10" />
      <stop
         offset="1"
         stop-color="#FF5C8A"
         id="stop11" />
    </linearGradient>
    <clipPath
       id="iconClip">
      <rect
         x="34"
         y="34"
         width="444"
         height="444"
         rx="112"
         id="rect11" />
    </clipPath>
  </defs>
  <g
     transform="translate(96,96) scale(1.625)"
     id="g19">
    <rect
       x="34"
       y="34"
       width="444"
       height="444"
       rx="112"
       fill="#0B1020"
       id="rect12" />
    <rect
       x="45"
       y="45"
       width="422"
       height="422"
       rx="101"
       fill="none"
       stroke="url(#borderGrad)"
       stroke-width="10"
       opacity="1"
       id="rect13" />
    <g
       clip-path="url(#iconClip)"
       id="g16">
      <rect
         x="110"
         y="162"
         width="142"
         height="104"
         rx="26"
         fill="url(#tileWarm)"
         opacity="0.98"
         transform="rotate(-8 181 214)"
         id="rect14" />
      <rect
         x="285"
         y="238"
         width="112"
         height="88"
         rx="23"
         fill="url(#tileCool)"
         opacity="0.98"
         transform="rotate(7 341 282)"
         id="rect15" />
      <rect
         x="146"
         y="314"
         width="96"
         height="68"
         rx="20"
         fill="#171E31"
         opacity="0.72"
         id="rect16" />
    </g>
    <path
       d="M253.4 110.6 C257.1 103.0 266.9 103.0 270.6 110.6 L401.7 386.0 C404.8 392.5 400.1 400.0 392.9 400.0 H329.6 C326.0 400.0 322.7 397.9 321.1 394.7 L299.6 349.0 H224.4 L202.9 394.7 C201.3 397.9 198.0 400.0 194.4 400.0 H131.1 C123.9 400.0 119.2 392.5 122.3 386.0 L253.4 110.6 Z M241.7 298.0 H282.3 L262.0 253.8 Z"
       fill="#FFFFFF"
       fill-rule="evenodd"
       id="path16" />
    <path
       d="M108 106 H154 M108 106 V152"
       fill="none"
       stroke="#22D3EE"
       stroke-width="15"
       stroke-linecap="round"
       opacity="0.95"
       id="path17" />
    <path
       d="M404 406 H358 M404 406 V360"
       fill="none"
       stroke="#8B5CF6"
       stroke-width="15"
       stroke-linecap="round"
       opacity="0.95"
       id="path18" />
    <circle
       cx="385"
       cy="128"
       r="9"
       fill="#FF5C8A"
       opacity="0.95"
       id="circle18" />
    <circle
       cx="127"
       cy="382"
       r="7"
       fill="#22D3EE"
       opacity="0.95"
       id="circle19" />
  </g>
</svg>
