<?xml version="1.0" encoding="UTF-8" standalone="no"?>
<svg
   width="2000"
   height="600"
   viewBox="0 0 2000 600"
   version="1.1"
   id="svg20"
   xmlns="http://www.w3.org/2000/svg"
   xmlns:svg="http://www.w3.org/2000/svg">
  <defs
     id="defs11">
    <linearGradient
       id="borderGrad"
       x1="50"
       y1="50"
       x2="462"
       y2="462"
       gradientUnits="userSpaceOnUse">
      <stop
         offset="0"
         stop-color="#22D3EE"
         id="stop1" />
      <stop
         offset="0.48"
         stop-color="#8B5CF6"
         id="stop2" />
      <stop
         offset="1"
         stop-color="#FF5C8A"
         id="stop3" />
    </linearGradient>
    <linearGradient
       id="tileCool"
       x1="115"
       y1="120"
       x2="386"
       y2="350"
       gradientUnits="userSpaceOnUse">
      <stop
         offset="0"
         stop-color="#22D3EE"
         id="stop4" />
      <stop
         offset="0.55"
         stop-color="#8B5CF6"
         id="stop5" />
      <stop
         offset="1"
         stop-color="#2563EB"
         id="stop6" />
    </linearGradient>
    <linearGradient
       id="tileWarm"
       x1="120"
       y1="160"
       x2="250"
       y2="265"
       gradientUnits="userSpaceOnUse">
      <stop
         offset="0"
         stop-color="#FF8AB3"
         id="stop7" />
      <stop
         offset="1"
         stop-color="#8B5CF6"
         id="stop8" />
    </linearGradient>
    <linearGradient
       id="textAccent"
       x1="0"
       y1="0"
       x2="480"
       y2="0"
       gradientUnits="userSpaceOnUse">
      <stop
         offset="0"
         stop-color="#22D3EE"
         id="stop9" />
      <stop
         offset="0.5"
         stop-color="#8B5CF6"
         id="stop10" />
      <stop
         offset="1"
         stop-color="#FF5C8A"
         id="stop11" />
    </linearGradient>
    <clipPath
       id="iconClip">
      <rect
         x="34"
         y="34"
         width="444"
         height="444"
         rx="112"
         id="rect11" />
    </clipPath>
  </defs>
  <g
     transform="translate(104,88) scale(0.828125)"
     id="g19">
    <rect
       x="34"
       y="34"
       width="444"
       height="444"
       rx="112"
       fill="#0B1020"
       id="rect12" />
    <rect
       x="45"
       y="45"
       width="422"
       height="422"
       rx="101"
       fill="none"
       stroke="url(#borderGrad)"
       stroke-width="10"
       opacity="1"
       id="rect13" />
    <g
       clip-path="url(#iconClip)"
       id="g16">
      <rect
         x="110"
         y="162"
         width="142"
         height="104"
         rx="26"
         fill="url(#tileWarm)"
         opacity="0.98"
         transform="rotate(-8 181 214)"
         id="rect14" />
      <rect
         x="285"
         y="238"
         width="112"
         height="88"
         rx="23"
         fill="url(#tileCool)"
         opacity="0.98"
         transform="rotate(7 341 282)"
         id="rect15" />
      <rect
         x="146"
         y="314"
         width="96"
         height="68"
         rx="20"
         fill="#171E31"
         opacity="0.72"
         id="rect16" />
    </g>
    <path
       d="M253.4 110.6 C257.1 103.0 266.9 103.0 270.6 110.6 L401.7 386.0 C404.8 392.5 400.1 400.0 392.9 400.0 H329.6 C326.0 400.0 322.7 397.9 321.1 394.7 L299.6 349.0 H224.4 L202.9 394.7 C201.3 397.9 198.0 400.0 194.4 400.0 H131.1 C123.9 400.0 119.2 392.5 122.3 386.0 L253.4 110.6 Z M241.7 298.0 H282.3 L262.0 253.8 Z"
       fill="#FFFFFF"
       fill-rule="evenodd"
       id="path16" />
    <path
       d="M108 106 H154 M108 106 V152"
       fill="none"
       stroke="#22D3EE"
       stroke-width="15"
       stroke-linecap="round"
       opacity="0.95"
       id="path17" />
    <path
       d="M404 406 H358 M404 406 V360"
       fill="none"
       stroke="#8B5CF6"
       stroke-width="15"
       stroke-linecap="round"
       opacity="0.95"
       id="path18" />
    <circle
       cx="385"
       cy="128"
       r="9"
       fill="#FF5C8A"
       opacity="0.95"
       id="circle18" />
    <circle
       cx="127"
       cy="382"
       r="7"
       fill="#22D3EE"
       opacity="0.95"
       id="circle19" />
  </g>
  <g
     id="wordmark">
    <path
       d="M 627.84375,245.41406 H 601.125 V 356 h 26.71875 z M 636.89375,356 H 662.425 v -45.64453 c 0,-8.6836 5.12109,-13.73047 12.09766,-13.73047 6.90234,0 11.57812,4.89844 11.57812,12.54297 V 356 h 24.41797 v -46.16406 c 0,-7.94141 4.60156,-13.21094 11.875,-13.21094 6.90234,0 11.80078,4.52734 11.80078,12.83984 V 356 H 759.8 v -52.17578 c 0,-17.44141 -11.05859,-27.90625 -26.49609,-27.90625 -11.20704,0 -21.15235,5.5664 -25.16016,15.80859 -3.19141,-10.24219 -12.24609,-15.80859 -22.71094,-15.80859 -10.16797,0 -19.44531,5.19531 -23.97265,16.40234 V 277.625 h -24.56641 z m 155.85469,1.33594 c 11.0586,0 18.10938,-3.85938 22.78516,-12.32032 h 0.29687 V 356 h 24.9375 v -52.76953 c 0,-17.29297 -12.54296,-27.3125 -35.32812,-27.3125 -22.71094,0 -35.55078,10.09375 -36.66406,27.08984 h 23.75 c 0.51953,-5.34375 4.89843,-8.75781 12.02343,-8.75781 6.75391,0 10.91016,3.19141 10.91016,7.86719 v 0.37109 c 0,4.67578 -5.12109,5.78906 -19.14844,6.97656 -16.69922,1.33594 -30.42968,7.05078 -30.42968,24.64063 0,15.58594 11.20703,23.23047 26.86718,23.23047 z m 7.79297,-16.69922 c -6.23437,0 -10.46484,-2.89453 -10.46484,-7.71875 0,-5.1211 4.89844,-7.94141 11.72656,-8.98047 6.30859,-1.03906 11.13281,-2.00391 13.87891,-3.26563 v 7.125 c 0,7.71875 -6.60547,12.83985 -15.14063,12.83985 z m 87.94452,47.42578 c 24.49219,0 39.92969,-10.83594 39.92969,-36.36719 V 277.625 h -25.38281 v 10.98437 h -0.0742 c -4.89844,-8.23828 -12.54297,-12.6914 -22.71094,-12.6914 -19.89062,0 -33.69531,16.77344 -33.69531,40.07812 0,23.00782 13.35937,39.48438 33.91797,39.48438 10.24218,0 18.33203,-4.08203 22.48828,-13.35938 h 0.0742 v 12.09766 c 0,10.39062 -5.04688,15.73437 -14.54688,15.73437 -7.34765,0 -12.32031,-2.96875 -13.65625,-7.86718 h -24.41797 c 2.375,15.0664 13.95313,25.97656 38.07422,25.97656 z m -0.89062,-52.62109 c -9.35157,0 -15.14063,-7.42188 -15.14063,-19.89063 0,-12.39453 5.78906,-19.81641 15.14063,-19.81641 9.64843,0 16.2539,7.79297 16.2539,19.81641 0,12.09766 -6.60547,19.89063 -16.2539,19.89063 z m 86.9797,22.33984 c 19.81641,0 35.62499,-11.05859 38.51949,-26.86719 h -22.93355 c -1.85547,5.19531 -7.19922,8.46094 -14.69531,8.46094 -10.09375,0 -16.03125,-6.30859 -16.32813,-16.25391 h 54.55079 v -6.90234 c 0,-23.75 -16.25391,-40.375 -39.78126,-40.375 -23.23047,0 -39.70703,17.07031 -39.70703,40.96875 0,23.89844 16.32813,40.96875 40.375,40.96875 z m -15.28906,-49.94922 c 1.11328,-8.23828 6.67969,-13.13672 15.28906,-13.13672 8.53516,0 14.17578,4.89844 15.28906,13.13672 z"
       id="text19"
       style="font-weight:800;font-size:152px;font-family:'Inter Display', Inter, Arial, sans-serif;letter-spacing:-5.2;fill:#0b1020"
       aria-label="Image" />
    <path
       d="m 1076.9297,291.94922 h -50.2461 v 17.51562 h 50.2461 z M 1075.9602,356 h 24.6406 l 8.0156,-24.12109 h 41.3398 L 1157.675,356 h 25.3086 l -38.8164,-110.58594 h -29.3906 z m 38.8164,-42.37891 3.7851,-11.42968 c 3.5625,-11.28125 6.9766,-22.5625 10.9844,-36.29297 3.9336,13.73047 7.3476,25.01172 10.7617,36.29297 l 3.7109,11.42968 z M 1186.2445,356 h 21.8946 v -42.45313 c 0,-11.80078 6.6054,-18.03515 15.5859,-18.03515 3.7109,0 7.793,0.29687 9.4258,0.37109 v -18.6289 c -1.7813,-0.0742 -3.9336,-0.14844 -6.457,-0.14844 -10.3165,0 -16.254,4.45312 -19.1485,13.8789 h -0.2226 V 277.625 h -21.0782 z m 52.6907,0 h 21.8945 v -42.45313 c 0,-11.80078 6.6055,-18.03515 15.5859,-18.03515 3.711,0 7.793,0.29687 9.4258,0.37109 v -18.6289 c -1.7812,-0.0742 -3.9336,-0.14844 -6.457,-0.14844 -10.3164,0 -16.2539,4.45312 -19.1485,13.8789 h -0.2226 V 277.625 h -21.0781 z m 74.3625,1.33594 c 12.0234,0 18.7773,-4.75 22.9336,-12.39453 h 0.2968 V 356 h 21.375 v -53.14063 c 0,-16.77343 -12.3203,-26.86718 -33.7695,-26.86718 -21.5234,0 -34.2891,10.24218 -35.2539,26.42187 h 20.5586 c 0.5195,-6.01172 5.8633,-10.16797 14.0273,-10.16797 8.0157,0 12.8399,4.00782 12.8399,9.79688 v 0.51953 c 0,5.04687 -5.0469,5.71484 -19.3711,7.125 -16.3281,1.48437 -30.5781,6.53125 -30.5781,24.19531 0,15.66016 11.2812,23.45313 26.9414,23.45313 z m 6.0859,-15.21485 c -7.3477,0 -12.0977,-3.26562 -12.0977,-8.83203 0,-6.23437 5.9375,-9.1289 13.4336,-10.24219 7.0508,-1.11328 13.211,-2.15234 15.7344,-3.5625 v 7.86719 c 0,8.46094 -6.5312,14.76953 -17.0703,14.76953 z m 70.6516,-29.6875 c 0,-12.17187 6.3086,-17.58984 15.3632,-17.58984 9.1289,0 14.3985,5.56641 14.3985,16.10547 V 356 h 21.8203 v -49.05859 c 0,-19.81641 -10.7617,-30.94922 -27.4609,-30.94922 -11.2813,0 -19.2227,5.04687 -24.4922,13.95312 V 277.625 h -21.5235 V 356 h 21.8946 z m 98.9289,75.62891 c 22.7109,0 38.2968,-10.24219 38.2968,-35.10547 V 277.625 h -21.5976 v 11.35547 h -0.074 c -4.9727,-8.6836 -13.1368,-12.98828 -23.3047,-12.98828 -20.0391,0 -33.7696,16.69922 -33.7696,40.22656 0,23.37891 13.4336,39.85547 33.918,39.85547 10.2422,0 18.4805,-4.15625 23.1563,-13.35938 h 0.074 v 12.02344 c 0,11.28125 -6.0117,17.21875 -16.6992,17.21875 -8.1641,0 -13.9532,-3.33984 -15.5118,-9.27734 h -21.0781 c 2.2266,15.21484 14.3242,25.38281 36.5899,25.38281 z m -0.8907,-49.50391 c -10.6133,0 -17.5156,-8.23828 -17.5156,-22.63672 0,-14.39843 6.9023,-22.5625 17.5156,-22.5625 11.0586,0 18.4063,8.90625 18.4063,22.5625 0,13.73047 -7.3477,22.63672 -18.4063,22.63672 z M 1537.5727,356 h 21.8945 v -42.45313 c 0,-11.80078 6.6055,-18.03515 15.5859,-18.03515 3.711,0 7.793,0.29687 9.4258,0.37109 v -18.6289 c -1.7812,-0.0742 -3.9336,-0.14844 -6.457,-0.14844 -10.3164,0 -16.2539,4.45312 -19.1485,13.8789 h -0.2226 V 277.625 h -21.0781 z m 86.6086,1.78125 c 19,0 34.1406,-10.83594 37.0351,-26.42188 h -19.9648 c -2.0039,6.08594 -7.8672,10.01954 -16.4024,10.01954 -11.5039,0 -18.1836,-7.4961 -18.5546,-19.07422 h 55.7382 v -5.86328 c 0,-23.89844 -15.5117,-40.59766 -38.5937,-40.59766 -22.4883,0 -38.4453,17.14453 -38.4453,41.04297 0,23.82422 15.4375,40.89453 39.1875,40.89453 z m -17.7383,-49.42969 c 1.1875,-9.79687 7.6445,-15.88281 17.4414,-15.88281 9.8711,0 16.4023,6.08594 17.5156,15.88281 z M 1668.5594,356 h 21.8945 v -42.45313 c 0,-11.80078 6.6055,-18.03515 15.586,-18.03515 3.7109,0 7.7929,0.29687 9.4257,0.37109 v -18.6289 c -1.7812,-0.0742 -3.9336,-0.14844 -6.457,-0.14844 -10.3164,0 -16.2539,4.45312 -19.1484,13.8789 h -0.2227 V 277.625 h -21.0781 z"
       id="text20"
       style="font-weight:650;font-size:152px;font-family:'Inter Display', Inter, Arial, sans-serif;letter-spacing:-5.2;fill:#3b4354"
       aria-label="-Arrangrer" />
  </g>
</svg>
